<svg width="70" height="70" viewBox="0 0 70 70" fill="none" xmlns="http://www.w3.org/2000/svg">
<g clip-path="url(#clip0_6_101)">
<path fill-rule="evenodd" clip-rule="evenodd" d="M50.7938 41.9476C49.9246 41.513 45.6633 39.4189 44.87 39.1272C44.0767 38.8385 43.4992 38.6955 42.9187 39.5647C42.3412 40.428 40.6817 42.3822 40.1771 42.9597C39.6696 43.5401 39.165 43.6101 38.2987 43.1785C37.4325 42.741 34.6383 41.828 31.3279 38.8764C28.7525 36.578 27.0112 33.7401 26.5067 32.871C26.0021 32.0047 26.4513 31.5351 26.8858 31.1035C27.2767 30.7155 27.7521 30.0914 28.1867 29.5868C28.6212 29.0793 28.7642 28.7176 29.0529 28.1372C29.3446 27.5597 29.1987 27.0551 28.98 26.6205C28.7642 26.186 27.0317 21.9189 26.3083 20.1835C25.6054 18.4947 24.8908 18.7251 24.36 18.696C23.8525 18.6726 23.275 18.6668 22.6975 18.6668C22.12 18.6668 21.1808 18.8826 20.3875 19.7518C19.5912 20.618 17.3542 22.7151 17.3542 26.9822C17.3542 31.2464 20.4575 35.3676 20.8921 35.948C21.3267 36.5255 27.0025 45.2814 35.6971 49.0351C37.7679 49.9276 39.3808 50.4614 40.6379 50.858C42.7146 51.5201 44.6046 51.4268 46.0979 51.2022C47.7604 50.9543 51.2254 49.1051 51.9487 47.0809C52.6692 45.0568 52.6692 43.3214 52.4533 42.9597C52.2375 42.598 51.66 42.3822 50.7908 41.9476H50.7938ZM34.9796 63.5397H34.9679C29.8038 63.5406 24.7344 62.1524 20.2912 59.5205L19.2412 58.8964L8.32708 61.7605L11.2408 51.1205L10.5554 50.0297C7.66832 45.434 6.14044 40.1153 6.14833 34.688C6.15417 18.7922 19.0867 5.8597 34.9912 5.8597C42.6912 5.8597 49.9304 8.86387 55.3729 14.3122C58.0574 16.9856 60.185 20.1647 61.6329 23.6657C63.0807 27.1666 63.82 30.9199 63.8079 34.7085C63.8021 50.6043 50.8696 63.5397 34.9796 63.5397ZM59.5146 10.1735C56.301 6.93865 52.4773 4.37377 48.2653 2.62745C44.0532 0.881139 39.5364 -0.0118891 34.9767 0.000119518C15.8608 0.000119518 0.2975 15.5605 0.291667 34.6851C0.282809 40.7715 1.87943 46.7525 4.92042 52.0247L0 70.0001L18.3867 65.1759C23.473 67.9471 29.1728 69.3992 34.965 69.3993H34.9796C54.0954 69.3993 69.6587 53.8389 69.6646 34.7114C69.6787 30.1534 68.7889 25.6379 67.0467 21.426C65.3044 17.2142 62.7444 13.3896 59.5146 10.1735Z" fill="white"/>
</g>
<defs>
<clipPath id="clip0_6_101">
<rect width="70" height="70" fill="white"/>
</clipPath>
</defs>
</svg>
